<svg width="60" height="60" viewBox="0 0 60 60" fill="none" xmlns="http://www.w3.org/2000/svg">
<path d="M23.7663 15.9208C23.7885 15.9307 23.8065 15.948 23.8175 15.9697C23.8284 15.9914 23.8315 16.0162 23.8264 16.04C22.3359 22.8971 21.5425 30.0585 21.6226 37.0739C21.6233 37.1032 21.6096 37.121 21.5816 37.1273L19.459 37.647C19.4215 37.6566 19.4018 37.642 19.3998 37.6032C19.2416 34.0393 19.3458 30.5493 19.7126 27.1329C20.1389 23.1727 20.8712 19.0657 21.6789 15.0463C21.6878 15.0025 21.7126 14.9897 21.7533 15.0082L23.7663 15.9208Z" fill="white"/>
<path d="M15.2289 34.6271C13.2556 35.0257 11.455 35.8489 9.8269 37.0968C9.20135 37.5765 8.71121 38.2678 8.94484 39.0984C9.33295 40.4801 11.2658 40.8215 12.4407 40.7872C13.4235 40.7592 14.413 40.6136 15.4091 40.3504C21.0181 38.8695 27.2354 37.1474 33.2105 37.34C33.248 37.3413 33.2588 37.3587 33.2429 37.3924L32.2808 39.4998C32.2674 39.5291 32.2448 39.5437 32.2131 39.5437C26.7033 39.6047 21.2708 41.1934 15.967 42.5227C13.1225 43.235 9.36727 43.7576 7.38002 41.0094C5.65214 38.6206 6.90514 35.4347 8.1467 33.1795C10.6298 28.6663 14.0236 24.9549 17.7759 21.2818C17.917 21.1438 18.0289 21.0434 18.1116 20.9804C18.1662 20.9391 18.1853 20.9515 18.1688 21.0176C17.0995 25.3246 16.9345 29.6669 17.6739 34.0444C17.8919 35.3362 18.137 36.627 18.4091 37.9169C18.4128 37.9341 18.4098 37.952 18.4005 37.967C18.3913 37.9819 18.3765 37.9927 18.3595 37.997L16.2502 38.5301C16.2406 38.5325 16.2306 38.533 16.2208 38.5315C16.2111 38.53 16.2017 38.5265 16.1933 38.5214C16.1849 38.5162 16.1777 38.5094 16.1721 38.5014C16.1665 38.4934 16.1625 38.4843 16.1605 38.4747L15.35 34.7053C15.3354 34.6391 15.295 34.6131 15.2289 34.6271ZM14.8503 27.7518C13.1072 29.631 11.6177 31.6935 10.3819 33.9395C10.345 34.0069 10.3599 34.0215 10.4267 33.9834C11.878 33.1608 13.412 32.5387 15.0287 32.1173C15.0579 32.1096 15.0712 32.0906 15.0687 32.06C14.9403 30.6335 14.8847 29.2044 14.9018 27.7728C14.9025 27.7213 14.8853 27.7143 14.8503 27.7518Z" fill="white"/>
<path d="M44.2005 28.0379C44.9118 27.3236 45.6871 27.4857 46.6121 27.459C46.6233 27.4588 46.6344 27.4607 46.6449 27.4648C46.6554 27.4688 46.6649 27.4749 46.673 27.4826C46.681 27.4903 46.6875 27.4995 46.6919 27.5097C46.6964 27.5199 46.6987 27.5309 46.6988 27.542C46.7198 30.6163 46.7274 33.6926 46.6874 36.7764C46.6874 36.8095 46.6705 36.8266 46.6368 36.8279C45.6814 36.8642 44.7116 36.93 43.9983 36.2167C43.9748 36.1925 43.9503 36.1919 43.9249 36.2148C42.506 37.5078 40.1764 36.9519 38.8328 35.8581C37.0067 34.3715 36.5232 31.5785 37.802 29.6046C38.9424 27.8443 40.7943 26.9174 42.9122 27.4123C43.1798 27.4746 43.58 27.686 44.1127 28.0464C44.1445 28.068 44.1738 28.0652 44.2005 28.0379ZM39.4145 32.4643C39.5728 33.9948 41.1118 34.937 42.5336 34.547C45.3095 33.7831 44.5437 29.6961 41.847 29.6437C40.2832 29.6132 39.2638 31.0159 39.4145 32.4643Z" fill="white"/>
<path d="M48.8234 32.0085C47.3644 31.075 47.2986 29.3938 48.4706 28.2085C49.8513 26.8125 52.1104 27.1424 53.4978 28.3792C53.5098 28.3899 53.5172 28.4047 53.5186 28.4206C53.52 28.4366 53.5153 28.4525 53.5055 28.4651L52.631 29.5903C52.6113 29.6151 52.5856 29.6284 52.5538 29.6303C51.9559 29.6627 51.3456 29.5741 50.7449 29.5626C50.4302 29.5569 50.2623 29.7428 50.3138 30.048C50.3987 30.5477 50.8459 30.8223 51.337 31.0254C52.0636 31.3267 52.8761 31.7701 53.3576 32.3499C54.255 33.4284 54.0976 35.1429 53.0754 36.1127C52.1533 36.9881 50.6695 37.1922 49.5023 36.7307C48.1921 36.2119 47.4092 35.1067 47.3902 33.6859C47.3902 33.6573 47.4045 33.642 47.4331 33.6401L49.4661 33.4761C49.4985 33.4736 49.5173 33.4882 49.5224 33.52C49.6559 34.2924 50.1899 34.8826 51.0376 34.6833C51.3809 34.6032 51.5846 34.3979 51.6488 34.0673C51.6544 34.0377 51.6501 34.0072 51.6364 33.9805C51.5131 33.7472 51.4022 33.601 51.3036 33.5419C50.469 33.0435 49.6422 32.5324 48.8234 32.0085Z" fill="white"/>
<path d="M36.3964 35.841C36.3958 35.8836 36.3741 35.9049 36.3315 35.9049H34.1669C34.1358 35.9049 34.1199 35.889 34.1192 35.8572C34.1097 34.3346 34.11 32.8156 34.1202 31.3C34.1355 29.0372 30.92 29.0601 30.9372 31.3039C30.948 32.8054 30.9483 34.3067 30.9381 35.8076C30.9381 35.8356 30.9245 35.8495 30.8971 35.8495L28.7258 35.8782C28.6966 35.8782 28.682 35.8639 28.682 35.8352C28.6801 34.2752 28.6756 32.7174 28.6686 31.1618C28.6638 30.1834 27.881 29.5254 26.9398 29.6637C25.6248 29.8573 25.5123 30.9978 25.5352 32.0772C25.5647 33.4294 25.5266 34.7815 25.5342 36.1337C25.5342 36.1642 25.5193 36.182 25.4894 36.1871L23.3114 36.5399C23.3069 36.5408 23.3023 36.5406 23.2978 36.5395C23.2934 36.5383 23.2893 36.5362 23.2857 36.5333C23.2822 36.5304 23.2793 36.5268 23.2773 36.5226C23.2753 36.5185 23.2743 36.514 23.2742 36.5094C23.2501 33.7771 23.2739 31.0486 23.3457 28.3239C23.3527 28.0525 23.3594 27.8605 23.3658 27.748C23.3677 27.7136 23.3855 27.6917 23.4192 27.6822C23.9389 27.5401 25.1137 27.0728 25.3301 27.8195C25.3351 27.8366 25.3437 27.8524 25.3553 27.8658C25.367 27.8793 25.3814 27.89 25.3976 27.8973C25.4137 27.9045 25.4313 27.9082 25.4489 27.9079C25.4666 27.9077 25.484 27.9035 25.4999 27.8958C27.0898 27.1151 28.5847 27.2416 29.9845 28.2753C30.0132 28.2969 30.0414 28.2963 30.0694 28.2734C32.03 26.6761 35.4657 27.1014 36.2343 29.8363C36.3398 30.2095 36.3958 30.8401 36.4021 31.7282C36.4129 33.0848 36.411 34.4557 36.3964 35.841Z" fill="white"/>
<path d="M59.9743 31.3852L57.0621 31.3751C57.0479 31.375 57.0364 31.3865 57.0363 31.4007L57.0311 32.8921C57.031 32.9063 57.0425 32.9179 57.0568 32.9179L59.969 32.9281C59.9832 32.9281 59.9947 32.9167 59.9948 32.9024L60 31.4111C60 31.3968 59.9886 31.3853 59.9743 31.3852Z" fill="white"/>
<path d="M3.03989 33.3286L0.0590185 33.3338C0.0263666 33.3338 -5.68965e-05 33.3603 9.20089e-08 33.393L0.00249655 34.8233C0.00255354 34.856 0.0290694 34.8824 0.0617214 34.8824L3.0426 34.8772C3.07525 34.8771 3.10167 34.8506 3.10161 34.8179L3.09912 33.3876C3.09906 33.3549 3.07255 33.3285 3.03989 33.3286Z" fill="white"/>
<path d="M35.7613 39.6867C35.5649 39.6762 35.2101 39.6791 34.9307 39.6677C34.8805 39.6658 34.8707 39.6451 34.9012 39.6057L36.4498 37.5565C36.4714 37.5278 36.5003 37.5142 36.5366 37.5154C39.2953 37.5889 41.9729 38.5148 44.4837 39.764C44.5167 39.7805 44.5234 39.8043 44.5037 39.8355L43.3012 41.7703C43.2936 41.7829 43.2813 41.792 43.2669 41.7958C43.2525 41.7995 43.2371 41.7975 43.224 41.7903C40.8966 40.5227 38.4091 39.8215 35.7613 39.6867Z" fill="white"/>
<path d="M20.9122 43.3351C20.8915 43.3252 20.874 43.3096 20.862 43.29C20.8499 43.2705 20.8438 43.2478 20.8443 43.2249C20.8448 43.2019 20.8519 43.1796 20.8648 43.1605C20.8777 43.1415 20.8958 43.1267 20.917 43.1177C21.8582 42.7182 22.9176 42.4769 23.8941 42.1555C23.9789 42.1279 24.1601 42.1374 24.2431 42.1651C26.1655 42.804 29.4162 43.214 30.7579 41.1839C30.7727 41.1616 30.7935 41.1441 30.8178 41.1332C30.8421 41.1224 30.869 41.1188 30.8952 41.1228C31.4712 41.2105 32.4152 41.3498 32.8405 41.7426C32.8634 41.7643 32.8755 41.791 32.8767 41.8227C32.891 42.2156 32.5115 42.7458 32.2522 43.0252C29.2789 46.2349 24.2774 44.9648 20.9122 43.3351Z" fill="white"/>
</svg>
